<mxfile host="65bd71144e">
    <diagram id="C5RBs43oDa-KdzZeNtuy" name="Educational Models">
        <mxGraphModel dx="2068" dy="2000" grid="1" gridSize="10" guides="1" tooltips="1" connect="1" arrows="1" fold="1" page="1" pageScale="1" pageWidth="1169" pageHeight="827" math="0" shadow="0">
            <root>
                <mxCell id="WIyWlLk6GJQsqaUBKTNV-0"/>
                <mxCell id="WIyWlLk6GJQsqaUBKTNV-1" parent="WIyWlLk6GJQsqaUBKTNV-0"/>
                <mxCell id="educational_category_table" value="&lt;b&gt;EducationalCategory&lt;/b&gt;&lt;br&gt;&lt;hr&gt;id (PK)&lt;br&gt;title&lt;br&gt;description&lt;br&gt;order&lt;br&gt;created_at" style="rounded=0;whiteSpace=wrap;html=1;fillColor=#d5e8d4;strokeColor=#82b366;align=left;spacingLeft=4;spacingRight=4;" parent="WIyWlLk6GJQsqaUBKTNV-1" vertex="1">
                    <mxGeometry x="35" y="110" width="160" height="120" as="geometry"/>
                </mxCell>
                <mxCell id="educational_topic_table" value="&lt;b&gt;EducationalTopic&lt;/b&gt;&lt;br&gt;&lt;hr&gt;id (PK)&lt;br&gt;title&lt;br&gt;content&lt;br&gt;category_id (FK)&lt;br&gt;is_published&lt;br&gt;created_by_id (FK)&lt;br&gt;created_at&lt;br&gt;updated_at" style="rounded=0;whiteSpace=wrap;html=1;fillColor=#d5e8d4;strokeColor=#82b366;align=left;spacingLeft=4;spacingRight=4;" parent="WIyWlLk6GJQsqaUBKTNV-1" vertex="1">
                    <mxGeometry x="275" y="90" width="160" height="160" as="geometry"/>
                </mxCell>
                <mxCell id="topic_attachment_table" value="&lt;b&gt;TopicAttachment&lt;/b&gt;&lt;br&gt;&lt;hr&gt;id (PK)&lt;br&gt;topic_id (FK)&lt;br&gt;file&lt;br&gt;file_type&lt;br&gt;title&lt;br&gt;description&lt;br&gt;created_at" style="rounded=0;whiteSpace=wrap;html=1;fillColor=#d5e8d4;strokeColor=#82b366;align=left;spacingLeft=4;spacingRight=4;" parent="WIyWlLk6GJQsqaUBKTNV-1" vertex="1">
                    <mxGeometry x="525" y="250" width="160" height="140" as="geometry"/>
                </mxCell>
                <mxCell id="quiz_table" value="&lt;b&gt;Quiz&lt;/b&gt;&lt;br&gt;&lt;hr&gt;id (PK)&lt;br&gt;title&lt;br&gt;description&lt;br&gt;topic_id (FK)&lt;br&gt;passing_score&lt;br&gt;is_published&lt;br&gt;created_by_id (FK)&lt;br&gt;created_at&lt;br&gt;updated_at" style="rounded=0;whiteSpace=wrap;html=1;fillColor=#d5e8d4;strokeColor=#82b366;align=left;spacingLeft=4;spacingRight=4;" parent="WIyWlLk6GJQsqaUBKTNV-1" vertex="1">
                    <mxGeometry x="525" y="40" width="160" height="180" as="geometry"/>
                </mxCell>
                <mxCell id="quiz_question_table" value="&lt;b&gt;QuizQuestion&lt;/b&gt;&lt;br&gt;&lt;hr&gt;id (PK)&lt;br&gt;quiz_id (FK)&lt;br&gt;text&lt;br&gt;question_type&lt;br&gt;points&lt;br&gt;order&lt;br&gt;image" style="rounded=0;whiteSpace=wrap;html=1;fillColor=#d5e8d4;strokeColor=#82b366;align=left;spacingLeft=4;spacingRight=4;" parent="WIyWlLk6GJQsqaUBKTNV-1" vertex="1">
                    <mxGeometry x="725" y="250" width="160" height="140" as="geometry"/>
                </mxCell>
                <mxCell id="quiz_answer_table" value="&lt;b&gt;QuizAnswer&lt;/b&gt;&lt;br&gt;&lt;hr&gt;id (PK)&lt;br&gt;question_id (FK)&lt;br&gt;text&lt;br&gt;is_correct&lt;br&gt;explanation" style="rounded=0;whiteSpace=wrap;html=1;fillColor=#d5e8d4;strokeColor=#82b366;align=left;spacingLeft=4;spacingRight=4;" parent="WIyWlLk6GJQsqaUBKTNV-1" vertex="1">
                    <mxGeometry x="955" y="260" width="160" height="120" as="geometry"/>
                </mxCell>
                <mxCell id="user_quiz_attempt_table" value="&lt;b&gt;UserQuizAttempt&lt;/b&gt;&lt;br&gt;&lt;hr&gt;id (PK)&lt;br&gt;user_id (FK)&lt;br&gt;quiz_id (FK)&lt;br&gt;start_time&lt;br&gt;end_time&lt;br&gt;score&lt;br&gt;is_passed&lt;br&gt;is_completed" style="rounded=0;whiteSpace=wrap;html=1;fillColor=#d5e8d4;strokeColor=#82b366;align=left;spacingLeft=4;spacingRight=4;" parent="WIyWlLk6GJQsqaUBKTNV-1" vertex="1">
                    <mxGeometry x="755" y="50" width="160" height="160" as="geometry"/>
                </mxCell>
                <mxCell id="user_question_response_table" value="&lt;b&gt;UserQuestionResponse&lt;/b&gt;&lt;br&gt;&lt;hr&gt;id (PK)&lt;br&gt;attempt_id (FK)&lt;br&gt;question_id (FK)&lt;br&gt;selected_answer_id (FK)&lt;br&gt;is_correct&lt;br&gt;points_earned" style="rounded=0;whiteSpace=wrap;html=1;fillColor=#d5e8d4;strokeColor=#82b366;align=left;spacingLeft=4;spacingRight=4;" parent="WIyWlLk6GJQsqaUBKTNV-1" vertex="1">
                    <mxGeometry x="975" y="60" width="160" height="140" as="geometry"/>
                </mxCell>
                <mxCell id="user_bookmark_table" value="&lt;b&gt;UserBookmark&lt;/b&gt;&lt;br&gt;&lt;hr&gt;id (PK)&lt;br&gt;user_id (FK)&lt;br&gt;topic_id (FK)&lt;br&gt;created_at" style="rounded=0;whiteSpace=wrap;html=1;fillColor=#d5e8d4;strokeColor=#82b366;align=left;spacingLeft=4;spacingRight=4;" parent="WIyWlLk6GJQsqaUBKTNV-1" vertex="1">
                    <mxGeometry x="255" y="330" width="160" height="100" as="geometry"/>
                </mxCell>
                <mxCell id="user_progress_table" value="&lt;b&gt;UserProgress&lt;/b&gt;&lt;br&gt;&lt;hr&gt;id (PK)&lt;br&gt;user_id (FK)&lt;br&gt;topic_id (FK)&lt;br&gt;is_completed&lt;br&gt;last_accessed&lt;br&gt;completed_at" style="rounded=0;whiteSpace=wrap;html=1;fillColor=#d5e8d4;strokeColor=#82b366;align=left;spacingLeft=4;spacingRight=4;" parent="WIyWlLk6GJQsqaUBKTNV-1" vertex="1">
                    <mxGeometry x="525" y="410" width="160" height="140" as="geometry"/>
                </mxCell>
                <mxCell id="category_to_topic" value="" style="edgeStyle=entityRelationEdgeStyle;fontSize=12;html=1;endArrow=ERmany;startArrow=ERone;rounded=0;exitX=1;exitY=0.5;exitDx=0;exitDy=0;entryX=0;entryY=0.5;entryDx=0;entryDy=0;startFill=0;" parent="WIyWlLk6GJQsqaUBKTNV-1" source="educational_category_table" target="educational_topic_table" edge="1">
                    <mxGeometry width="100" height="100" relative="1" as="geometry">
                        <mxPoint x="205" y="170" as="sourcePoint"/>
                        <mxPoint x="305" y="70" as="targetPoint"/>
                    </mxGeometry>
                </mxCell>
                <mxCell id="topic_to_attachment" value="" style="edgeStyle=entityRelationEdgeStyle;fontSize=12;html=1;endArrow=ERmany;startArrow=ERone;rounded=0;exitX=1;exitY=0.5;exitDx=0;exitDy=0;entryX=0.006;entryY=0.307;entryDx=0;entryDy=0;startFill=0;entryPerimeter=0;" parent="WIyWlLk6GJQsqaUBKTNV-1" source="educational_topic_table" target="topic_attachment_table" edge="1">
                    <mxGeometry width="100" height="100" relative="1" as="geometry">
                        <mxPoint x="205" y="170" as="sourcePoint"/>
                        <mxPoint x="305" y="70" as="targetPoint"/>
                        <Array as="points">
                            <mxPoint x="485" y="170"/>
                            <mxPoint x="465" y="270"/>
                            <mxPoint x="455" y="340"/>
                            <mxPoint x="455" y="330"/>
                        </Array>
                    </mxGeometry>
                </mxCell>
                <mxCell id="topic_to_quiz" value="" style="edgeStyle=entityRelationEdgeStyle;fontSize=12;html=1;endArrow=ERmany;startArrow=ERone;rounded=0;exitX=1;exitY=0.25;exitDx=0;exitDy=0;entryX=0;entryY=0.5;entryDx=0;entryDy=0;startFill=0;" parent="WIyWlLk6GJQsqaUBKTNV-1" source="educational_topic_table" target="quiz_table" edge="1">
                    <mxGeometry width="100" height="100" relative="1" as="geometry">
                        <mxPoint x="205" y="170" as="sourcePoint"/>
                        <mxPoint x="305" y="70" as="targetPoint"/>
                        <Array as="points">
                            <mxPoint x="445" y="120"/>
                        </Array>
                    </mxGeometry>
                </mxCell>
                <mxCell id="quiz_to_question" value="" style="edgeStyle=entityRelationEdgeStyle;fontSize=12;html=1;endArrow=ERmany;startArrow=ERone;rounded=0;exitX=1.013;exitY=0.683;exitDx=0;exitDy=0;entryX=0.013;entryY=0.35;entryDx=0;entryDy=0;startFill=0;exitPerimeter=0;entryPerimeter=0;" parent="WIyWlLk6GJQsqaUBKTNV-1" source="quiz_table" target="quiz_question_table" edge="1">
                    <mxGeometry width="100" height="100" relative="1" as="geometry">
                        <mxPoint x="205" y="170" as="sourcePoint"/>
                        <mxPoint x="305" y="70" as="targetPoint"/>
                    </mxGeometry>
                </mxCell>
                <mxCell id="question_to_answer" value="" style="edgeStyle=entityRelationEdgeStyle;fontSize=12;html=1;endArrow=ERmany;startArrow=ERone;rounded=0;exitX=1;exitY=0.5;exitDx=0;exitDy=0;entryX=-0.019;entryY=0.433;entryDx=0;entryDy=0;startFill=0;entryPerimeter=0;" parent="WIyWlLk6GJQsqaUBKTNV-1" source="quiz_question_table" target="quiz_answer_table" edge="1">
                    <mxGeometry width="100" height="100" relative="1" as="geometry">
                        <mxPoint x="205" y="170" as="sourcePoint"/>
                        <mxPoint x="305" y="70" as="targetPoint"/>
                    </mxGeometry>
                </mxCell>
                <mxCell id="quiz_to_attempt" value="" style="edgeStyle=entityRelationEdgeStyle;fontSize=12;html=1;endArrow=ERmany;startArrow=ERone;rounded=0;exitX=1;exitY=0.5;exitDx=0;exitDy=0;entryX=0;entryY=0.5;entryDx=0;entryDy=0;startFill=0;" parent="WIyWlLk6GJQsqaUBKTNV-1" source="quiz_table" target="user_quiz_attempt_table" edge="1">
                    <mxGeometry width="100" height="100" relative="1" as="geometry">
                        <mxPoint x="205" y="170" as="sourcePoint"/>
                        <mxPoint x="305" y="70" as="targetPoint"/>
                    </mxGeometry>
                </mxCell>
                <mxCell id="attempt_to_response" value="" style="edgeStyle=entityRelationEdgeStyle;fontSize=12;html=1;endArrow=ERmany;startArrow=ERone;rounded=0;exitX=1;exitY=0.25;exitDx=0;exitDy=0;startFill=0;" parent="WIyWlLk6GJQsqaUBKTNV-1" source="user_quiz_attempt_table" target="user_question_response_table" edge="1">
                    <mxGeometry width="100" height="100" relative="1" as="geometry">
                        <mxPoint x="205" y="170" as="sourcePoint"/>
                        <mxPoint x="305" y="70" as="targetPoint"/>
                    </mxGeometry>
                </mxCell>
                <mxCell id="topic_to_bookmark" value="" style="edgeStyle=entityRelationEdgeStyle;fontSize=12;html=1;endArrow=ERmany;startArrow=ERone;rounded=0;exitX=1;exitY=0.75;exitDx=0;exitDy=0;entryX=0;entryY=0.5;entryDx=0;entryDy=0;startFill=0;" parent="WIyWlLk6GJQsqaUBKTNV-1" source="educational_category_table" target="user_bookmark_table" edge="1">
                    <mxGeometry width="100" height="100" relative="1" as="geometry">
                        <mxPoint x="285" y="294" as="sourcePoint"/>
                        <mxPoint x="205" y="444" as="targetPoint"/>
                        <Array as="points">
                            <mxPoint x="215" y="200"/>
                        </Array>
                    </mxGeometry>
                </mxCell>
                <mxCell id="topic_to_progress" value="" style="edgeStyle=entityRelationEdgeStyle;fontSize=12;html=1;endArrow=ERmany;startArrow=ERone;rounded=0;entryX=-0.002;entryY=0.455;entryDx=0;entryDy=0;startFill=0;exitX=0.5;exitY=1;exitDx=0;exitDy=0;entryPerimeter=0;" parent="WIyWlLk6GJQsqaUBKTNV-1" target="user_progress_table" edge="1">
                    <mxGeometry width="100" height="100" relative="1" as="geometry">
                        <mxPoint x="435" y="230.0000000000001" as="sourcePoint"/>
                        <mxPoint x="405" y="490" as="targetPoint"/>
                        <Array as="points">
                            <mxPoint x="495" y="140"/>
                            <mxPoint x="445" y="250"/>
                            <mxPoint x="435" y="290"/>
                            <mxPoint x="435" y="290"/>
                            <mxPoint x="525" y="230"/>
                            <mxPoint x="465" y="330"/>
                        </Array>
                    </mxGeometry>
                </mxCell>
            </root>
        </mxGraphModel>
    </diagram>
</mxfile>